<svg width="640" height="420" viewBox="0 0 640 420" fill="none" xmlns="http://www.w3.org/2000/svg">
  <rect width="640" height="420" fill="#9A1B59"/>
  <circle cx="472" cy="94" r="84" fill="#E61E73" fill-opacity="0.2"/>
  <path d="M109 138C180 75 272 63 348 107C414 146 453 212 469 302C368 347 258 351 176 315C112 286 77 236 72 176C79 164 92 151 109 138Z" fill="#FFDCE9"/>
  <path d="M188 185C244 145 307 139 365 176C347 240 315 289 266 321C215 311 180 272 170 223C170 211 176 198 188 185Z" fill="#EB5B98"/>
</svg>
