<svg width="640" height="760" viewBox="0 0 640 760" fill="none" xmlns="http://www.w3.org/2000/svg">
  <rect width="640" height="760" fill="#2D1323"/>
  <circle cx="500" cy="130" r="116" fill="#E61E73" fill-opacity="0.14"/>
  <path d="M123 170C207 92 336 87 432 156C493 200 542 286 561 384C456 451 331 475 231 448C154 420 113 364 108 283C110 241 115 203 123 170Z" fill="#FFE2EE"/>
  <path d="M204 249C260 206 331 201 403 246C381 301 345 342 289 382C236 377 194 332 185 281C187 269 193 258 204 249Z" fill="#EE4E91"/>
</svg>
