<svg width="640" height="760" viewBox="0 0 640 760" fill="none" xmlns="http://www.w3.org/2000/svg">
  <rect width="640" height="760" fill="#9A1B59"/>
  <circle cx="472" cy="142" r="108" fill="#E61E73" fill-opacity="0.2"/>
  <path d="M119 200C200 110 314 95 412 153C489 202 536 289 552 411C445 464 324 479 228 446C150 419 109 362 105 281C108 249 112 222 119 200Z" fill="#FFDDEA"/>
  <path d="M192 255C249 211 322 208 397 255C372 323 339 372 282 415C222 402 187 356 176 289C177 280 182 269 192 255Z" fill="#EB5A98"/>
</svg>
