<svg width="640" height="520" viewBox="0 0 640 520" fill="none" xmlns="http://www.w3.org/2000/svg">
  <rect width="640" height="520" fill="#FFF7EE"/>
  <path d="M27 420C63 371 102 337 146 317C185 299 227 292 272 296C245 264 232 233 233 203C234 165 251 132 286 106C321 79 365 61 417 53L431 101C390 109 357 122 333 139C309 156 297 177 296 200C296 224 309 246 336 265C379 265 418 272 454 288C488 303 522 329 556 365L520 408C491 380 461 358 431 343C399 328 365 321 327 321C339 343 345 366 344 390C343 433 323 470 285 501L248 467C271 448 284 423 285 391C285 363 273 340 248 321C209 324 173 337 141 359C108 380 78 410 50 447L27 420Z" fill="#0D47B5"/>
  <path d="M105 117C133 132 154 154 168 183C180 210 186 244 184 284L137 281C139 252 134 226 123 205C112 184 95 168 71 156L105 117Z" fill="#0D47B5" fill-opacity="0.88"/>
  <path d="M506 130C538 143 564 162 584 188C603 214 614 246 617 283L572 294C565 261 553 234 537 214C521 193 499 176 469 165L506 130Z" fill="#0D47B5" fill-opacity="0.88"/>
</svg>
