<svg width="640" height="520" viewBox="0 0 640 520" fill="none" xmlns="http://www.w3.org/2000/svg">
  <rect width="640" height="520" fill="#F9F1E4"/>
  <path d="M18 478C78 429 135 404 195 395C165 359 149 323 150 284C152 241 176 205 223 175C197 151 183 126 183 99C183 68 198 43 228 24L279 66C254 79 242 97 243 121C244 150 261 175 294 196C338 174 389 169 443 185C473 161 489 130 489 97C489 71 478 49 455 31L512 17C534 43 544 72 543 103C541 149 517 188 472 220C500 247 515 280 516 319C517 363 497 401 455 434L405 392C430 370 442 347 442 322C441 293 425 268 393 246C348 268 298 272 242 258C215 281 202 308 203 341C204 368 216 392 239 412L181 434C157 409 144 379 142 344C140 296 161 251 204 213C173 186 157 154 156 116C155 72 177 34 222 3" fill="#0D47B5"/>
  <path d="M78 117C106 135 125 162 134 198C141 225 141 257 132 296L84 282C89 250 88 224 82 204C75 183 62 167 43 156L78 117Z" fill="#0D47B5"/>
  <path d="M517 365C548 350 572 327 586 296C599 267 603 232 598 192L640 206C646 255 639 299 621 337C603 375 575 404 537 423L517 365Z" fill="#0D47B5"/>
  <path d="M280 451C320 423 339 387 338 341C337 315 329 291 314 267L370 257C385 284 392 313 392 344C393 398 370 444 323 482L280 451Z" fill="#0D47B5"/>
</svg>
