<svg width="640" height="520" viewBox="0 0 640 520" fill="none" xmlns="http://www.w3.org/2000/svg">
  <rect width="640" height="520" fill="#FBF3E9"/>
  <path d="M64 482C78 425 106 380 150 349C191 320 241 302 303 297C277 270 264 240 265 206C266 164 286 125 325 90C362 57 410 30 470 10L502 58C455 73 418 91 392 113C365 136 352 161 352 188C351 214 365 236 392 254C450 258 497 277 532 311C566 343 589 390 602 450L545 462C532 412 512 376 485 354C456 331 418 319 370 316C382 337 388 358 387 380C386 429 362 472 316 509L271 470C303 447 320 416 321 379C322 355 314 333 298 315C242 316 195 330 158 357C121 384 97 422 86 470L64 482Z" fill="#0D47B5"/>
  <path d="M134 86C169 109 193 137 206 170C219 203 221 241 212 284L159 270C165 238 164 212 156 192C147 170 131 152 108 138L134 86Z" fill="#0D47B5"/>
  <path d="M511 115C541 128 566 148 585 177C603 205 614 237 617 275L565 287C560 252 551 225 536 205C521 184 501 169 476 159L511 115Z" fill="#0D47B5"/>
</svg>
