<svg width="640" height="520" viewBox="0 0 640 520" fill="none" xmlns="http://www.w3.org/2000/svg">
  <rect width="640" height="520" fill="#FBF2E6"/>
  <path d="M44 463C62 422 89 386 127 357C163 330 209 310 263 299C242 275 231 250 231 223C231 184 248 151 283 125C316 98 360 76 414 59L430 104C391 116 360 130 337 147C313 164 302 184 302 208C301 232 315 254 344 274C397 275 441 290 477 319C510 344 536 381 554 430L507 448C491 408 469 378 441 359C411 339 376 329 335 329C345 348 350 369 350 390C351 432 334 469 298 500L257 466C278 447 289 422 289 391C289 365 278 343 257 324C213 329 175 343 144 365C111 388 85 419 66 459L44 463Z" fill="#0D47B5"/>
  <path d="M138 104C167 117 190 136 208 162C224 188 234 220 237 260L188 265C182 232 171 205 156 185C139 163 116 146 87 136L138 104Z" fill="#0D47B5"/>
  <path d="M497 105C523 117 545 134 562 157C578 180 591 210 600 246L553 257C545 226 534 201 519 181C502 160 482 144 458 132L497 105Z" fill="#0D47B5"/>
</svg>
